# xmcd
#
# Track frame offsets:
#	150
#	18034
#	38835
#	69887
#	82818
#	102311
#	119428
#	141548
#	174637
#	190246
#	214582
#	230648
#	246166
#	268471
#	288669
#	312293
#	332572
#
# Disc length: 4778 seconds
#
# Revision: 0
# Processed by: cddbd v1.5.2PL0 Copyright (c) Steve Scherf et al.
# Submitted via: EasyCDDAExtractor 2010.4.0.0
#
DISCID=f912a811
DTITLE=Groundhogs - Groundhogs - Thank Christ For The Groundhogs - CD 2
DYEAR=2010
DGENRE=Blues Rock
TTITLE0=Express Man
TTITLE1=Natchez Burning
TTITLE2=Light Was The Day
TTITLE3=B.D.D. (Mono Mix) 
TTITLE4=Strange Town
TTITLE5=Darkness Is No Friend
TTITLE6=Soldier
TTITLE7=Thank Christ For The Bomb
TTITLE8=Ship On The Ocean
TTITLE9=Garden
TTITLE10=Status People
TTITLE11=Rich Man, Poor Man
TTITLE12=Eccentric Man
TTITLE13=Split (Part 1)
TTITLE14=Split (Part 2)
TTITLE15=Split (Part 3)
TTITLE16=Split (Part 4)
EXTD=
EXTT0=
EXTT1=
EXTT2=
EXTT3=
EXTT4=
EXTT5=
EXTT6=
EXTT7=
EXTT8=
EXTT9=
EXTT10=
EXTT11=
EXTT12=
EXTT13=
EXTT14=
EXTT15=
EXTT16=
PLAYORDER=
